<?xml version="1.0" standalone="no"?>
<!DOCTYPE svg PUBLIC "-//W3C//DTD SVG 20010904//EN"
 "http://www.w3.org/TR/2001/REC-SVG-20010904/DTD/svg10.dtd">
<svg version="1.0" xmlns="http://www.w3.org/2000/svg"
 width="380.000000pt" height="380.000000pt" viewBox="0 0 380.000000 380.000000"
 preserveAspectRatio="xMidYMid meet">
<metadata>
Created by potrace 1.14, written by Peter Selinger 2001-2017
</metadata>
<g transform="translate(0.000000,380.000000) scale(0.100000,-0.100000)"
fill="#000000" stroke="none">
<path d="M1739 3786 c-2 -2 -35 -7 -74 -10 -80 -8 -275 -50 -338 -72 -23 -9
-50 -17 -60 -19 -40 -9 -257 -112 -342 -163 -444 -266 -759 -695 -873 -1187
-41 -175 -50 -265 -47 -465 3 -168 5 -193 20 -287 37 -231 121 -457 254 -678
20 -33 39 -61 44 -63 4 -2 7 -8 7 -13 0 -21 147 -198 237 -285 232 -226 490
-377 793 -467 47 -14 103 -29 125 -33 22 -4 45 -8 50 -10 162 -40 477 -40 726
0 125 20 499 157 550 202 8 8 19 14 23 14 13 0 149 91 231 155 194 152 364
350 484 565 40 71 50 92 98 200 38 84 94 273 109 365 29 182 32 224 29 395 -2
102 -6 199 -9 215 -9 47 -19 98 -22 120 -6 47 -47 192 -78 278 -72 196 -181
389 -309 545 -218 267 -493 464 -817 585 -108 40 -271 83 -351 93 -30 3 -76
10 -104 14 -50 8 -349 13 -356 6z"/>
</g>
</svg>
