<?xml version="1.0" standalone="no"?>
<!DOCTYPE svg PUBLIC "-//W3C//DTD SVG 20010904//EN"
 "http://www.w3.org/TR/2001/REC-SVG-20010904/DTD/svg10.dtd">
<svg version="1.0" xmlns="http://www.w3.org/2000/svg"
 width="380.000000pt" height="380.000000pt" viewBox="0 0 380.000000 380.000000"
 preserveAspectRatio="xMidYMid meet">
<metadata>
Created by potrace 1.14, written by Peter Selinger 2001-2017
</metadata>
<g transform="translate(0.000000,380.000000) scale(0.100000,-0.100000)"
fill="#000000" stroke="none">
<path d="M2065 3346 c-59 -19 -101 -43 -145 -83 -36 -31 -40 -33 -46 -17 -12
39 -22 49 -50 52 -16 1 -46 7 -66 14 -33 10 -41 9 -57 -6 -11 -10 -23 -31 -26
-47 -4 -16 -11 -31 -16 -34 -4 -3 -44 2 -86 11 -122 26 -131 27 -162 14 -33
-13 -80 -104 -108 -211 -16 -63 -16 -67 0 -84 9 -9 15 -20 12 -25 -2 -4 -41
-22 -84 -40 -44 -17 -101 -45 -126 -61 l-46 -29 -80 41 c-86 43 -188 66 -307
71 -59 3 -66 1 -87 -25 -30 -34 -69 -156 -86 -263 -10 -68 -9 -95 4 -177 9
-53 25 -121 36 -151 l19 -54 -29 -81 c-44 -126 -63 -232 -56 -327 6 -79 5 -82
-19 -94 -37 -20 -65 -63 -132 -200 -70 -142 -92 -227 -95 -367 -2 -76 -5 -93
-17 -93 -9 0 -59 13 -110 30 -52 16 -96 30 -97 30 -2 0 -3 -9 -3 -20 0 -21 54
-40 280 -99 186 -48 439 -118 525 -144 44 -14 118 -35 165 -47 47 -12 186 -51
310 -87 303 -88 326 -94 620 -164 339 -80 521 -122 720 -164 91 -20 278 -61
415 -91 138 -30 320 -71 405 -89 130 -29 325 -65 353 -65 4 0 7 6 7 14 0 13
-128 47 -320 87 -30 6 -56 13 -58 14 -2 2 22 34 52 72 143 175 256 530 242
763 -11 187 -60 372 -139 519 -51 94 -52 98 -52 181 0 47 7 117 16 156 52 225
-114 385 -282 271 l-34 -23 -40 28 c-38 26 -174 68 -221 68 -12 0 -26 6 -31
13 -5 6 -27 75 -48 152 l-39 140 3 175 c4 206 4 205 -101 220 -86 12 -89 14
-118 62 -40 66 -160 180 -225 215 -116 61 -244 79 -340 49z m195 -37 c100 -27
160 -61 227 -128 50 -51 113 -131 113 -145 0 -3 -24 -6 -52 -6 -29 0 -86 -5
-127 -10 -41 -6 -76 -8 -79 -6 -5 6 62 65 100 88 30 19 38 54 16 76 -15 15
-92 16 -119 1 -15 -7 -24 -7 -35 2 -19 15 -40 -2 -47 -39 -3 -15 -20 -42 -37
-61 -30 -33 -32 -33 -45 -14 -8 11 -38 30 -67 43 -43 19 -65 22 -129 18 -84
-5 -88 -2 -89 59 0 33 80 97 152 121 80 27 125 27 218 1z m-486 -60 c20 -22
31 -28 40 -20 17 14 26 4 26 -31 0 -31 20 -103 50 -180 19 -47 19 -48 -1 -48
-10 0 -19 7 -19 15 0 9 -22 48 -49 88 -62 93 -91 150 -91 182 0 33 11 32 44
-6z m-289 -49 c30 -8 30 -8 -7 -9 -42 -1 -45 -6 -77 -96 -27 -77 -27 -89 7
-114 16 -12 21 -20 13 -21 -27 0 -61 42 -61 74 0 38 25 122 45 153 16 24 29
26 80 13z m69 -19 c4 -5 -3 -7 -14 -4 -23 6 -26 13 -6 13 8 0 17 -4 20 -9z
m863 -36 c1 -5 -25 -30 -58 -54 -34 -25 -82 -63 -107 -86 -73 -64 -152 -104
-152 -76 0 4 19 21 43 36 55 36 126 119 134 156 6 30 18 38 26 17 3 -10 12 -9
38 4 36 18 70 20 76 3z m-407 -145 c0 -5 -4 -10 -10 -10 -5 0 -10 5 -10 10 0
6 5 10 10 10 6 0 10 -4 10 -10z m700 -21 c36 -12 71 -23 79 -25 11 -4 12 -18
7 -67 -4 -34 -9 -88 -13 -120 l-6 -59 -56 8 c-62 9 -148 11 -170 4 -7 -3 -16
1 -18 8 -4 9 24 12 116 12 l121 0 -6 88 c-4 48 -12 92 -18 98 -17 17 -143 45
-231 51 -75 5 -116 -1 -225 -33 -20 -5 -23 -4 -13 6 45 49 318 67 433 29z
m-775 -44 c251 -57 485 -160 630 -277 78 -64 180 -176 243 -270 l32 -46 -135
-4 c-177 -4 -202 -23 -43 -32 240 -14 408 -41 480 -77 33 -17 38 -25 48 -75
21 -101 -3 -242 -62 -358 -36 -71 -121 -187 -195 -266 l-52 -55 -1 52 c0 79
-19 202 -39 263 -36 107 -40 125 -34 153 3 16 1 27 -6 27 -29 0 -3 23 82 71
104 59 127 76 127 96 0 23 -22 15 -130 -46 -117 -66 -161 -104 -142 -123 7 -7
12 -22 12 -34 0 -26 38 -115 55 -129 26 -21 39 -91 39 -205 -1 -190 -38 -316
-140 -472 l-47 -73 -12 47 c-18 67 -48 103 -112 133 -98 47 -161 20 -203 -84
-22 -57 -25 -60 -34 -39 -9 22 -11 246 -2 255 2 3 44 -7 91 -22 48 -14 91 -23
96 -18 13 13 37 122 49 217 13 104 13 366 1 416 -7 27 -9 13 -10 -65 -2 -170
-38 -506 -57 -524 -2 -2 -30 4 -61 13 -32 10 -86 24 -121 33 -49 12 -63 20
-66 37 -14 72 -30 318 -32 476 -1 102 -6 199 -12 215 -8 23 -10 -5 -11 -130
-1 -169 -12 -288 -38 -420 -22 -114 -25 -119 -82 -112 -76 9 -253 56 -301 80
-58 29 -63 52 -58 232 3 82 1 128 -4 110 -18 -67 -38 -204 -38 -264 0 -46 -3
-62 -12 -58 -7 2 -82 21 -166 42 -84 21 -160 44 -169 51 -14 10 -18 33 -21
122 -5 134 17 232 84 371 54 114 96 174 183 264 36 37 62 67 59 67 -4 0 -34
-23 -67 -50 -145 -120 -305 -425 -345 -653 -8 -43 -16 -80 -19 -83 -6 -7 -213
53 -249 72 -33 17 -43 61 -34 146 16 152 82 305 199 458 45 59 46 62 13 30
-71 -67 -149 -198 -201 -340 -22 -59 -29 -95 -31 -170 -3 -123 -19 -165 -52
-138 -7 7 -70 22 -138 34 -69 13 -132 29 -141 36 -12 10 -14 25 -9 68 7 67 64
247 101 321 89 175 241 338 435 466 93 62 116 80 87 70 -17 -6 -57 11 -57 24
0 18 199 95 335 129 160 40 369 46 510 15z m-1095 -86 c43 -9 240 -94 240
-103 0 -2 -26 -20 -57 -41 -32 -21 -85 -60 -119 -86 l-61 -48 -35 37 c-19 20
-50 58 -68 84 -18 27 -35 46 -38 44 -8 -9 20 -76 50 -117 26 -37 28 -43 14
-51 -18 -10 -22 -53 -6 -63 6 -4 -9 -30 -34 -61 -25 -30 -61 -82 -82 -117 -21
-34 -39 -64 -41 -66 -7 -10 -16 12 -39 100 -41 159 -27 346 37 472 l21 40 84
-7 c46 -3 106 -11 134 -17z m1999 -354 c16 -66 28 -121 27 -123 -5 -4 -96 114
-96 123 0 4 7 13 15 21 9 9 15 34 15 61 0 26 2 44 4 42 3 -2 18 -58 35 -124z
m614 -273 c27 -24 53 -80 60 -127 5 -26 -1 -79 -15 -147 -28 -134 -22 -172 61
-347 119 -256 151 -530 88 -771 -55 -212 -135 -377 -234 -479 l-48 -49 -85 19
c-162 38 -158 36 -165 70 -9 40 4 49 70 49 118 0 189 114 141 225 -11 26 -10
38 6 85 87 255 107 499 56 678 -20 70 -20 73 -3 92 40 45 15 103 -93 215 -67
69 -81 115 -62 200 6 26 11 92 11 146 0 91 2 101 25 129 14 16 40 34 57 38 39
10 105 -3 130 -26z m-2883 -30 c0 -10 -7 -27 -15 -38 -13 -17 -14 -16 -5 16 6
19 10 36 10 37 0 2 2 3 5 3 3 0 5 -8 5 -18z m689 -509 c6 -12 24 -29 41 -38
48 -25 250 -75 303 -75 40 0 47 3 47 20 0 28 17 25 24 -4 8 -33 93 -68 255
-105 144 -33 176 -37 186 -21 3 5 17 65 31 132 14 68 27 124 29 126 4 4 15
-145 16 -225 2 -73 11 -93 49 -105 12 -4 15 -28 15 -137 0 -127 -1 -132 -20
-126 -11 3 -44 11 -72 17 -29 6 -53 15 -53 20 0 43 27 101 66 141 54 57 58 85
12 79 -20 -2 -54 6 -83 18 -113 50 -158 61 -214 54 -76 -9 -112 -44 -152 -147
-27 -66 -33 -97 -33 -159 -1 -70 1 -79 30 -114 26 -32 84 -72 124 -86 7 -2 5
-27 -6 -73 -10 -47 -15 -98 -12 -152 4 -71 2 -83 -11 -83 -24 0 -444 106 -536
136 -44 14 -105 37 -135 51 -30 14 -83 36 -117 49 -92 35 -102 44 -118 99 -18
63 -55 224 -66 290 -5 27 -18 62 -29 77 -25 34 -25 36 6 122 15 41 27 101 30
141 l4 70 -14 -60 c-13 -59 -48 -165 -62 -187 -4 -7 -13 -2 -25 13 -15 20 -17
36 -12 100 7 87 -5 135 -43 170 -21 20 -38 24 -100 27 -54 3 -74 8 -74 18 0 7
-6 11 -14 8 -9 -3 -15 4 -18 20 -6 28 14 37 29 14 4 -7 19 -13 33 -14 14 0 72
-11 130 -23 58 -13 107 -23 110 -23 44 -2 60 4 60 22 0 21 14 27 25 11 3 -5
29 -17 58 -27 28 -9 57 -19 62 -23 15 -9 -67 -18 -97 -10 -38 10 -42 -2 -22
-66 16 -51 17 -59 1 -108 -39 -128 -31 -229 24 -292 55 -62 174 -72 230 -19
32 30 95 188 104 260 8 59 -3 91 -50 142 -25 29 -31 41 -22 45 9 3 16 30 20
79 3 40 12 91 19 113 13 40 13 40 20 -60 4 -55 12 -110 17 -122z m-791 -20
c-22 -38 -36 -53 -50 -53 -15 0 -8 16 23 53 39 48 55 48 27 0z m2762 -98 c25
-33 57 -65 71 -72 39 -19 62 -89 74 -223 12 -136 -29 -378 -92 -537 -29 -73
-41 -77 -113 -40 -58 29 -78 66 -91 167 -13 106 4 356 32 461 10 41 25 136 31
213 12 130 13 137 28 115 8 -13 35 -51 60 -84z m-135 -44 c-15 -141 -37 -222
-106 -388 -39 -95 -144 -277 -178 -307 -17 -16 -18 -14 -24 64 -4 60 -12 96
-32 137 l-28 55 22 37 c63 104 121 256 121 319 0 19 4 22 20 17 31 -10 56 10
136 111 42 53 77 94 79 92 2 -2 -3 -64 -10 -137z m-2470 79 c3 -6 -1 -7 -9 -4
-18 7 -21 14 -7 14 6 0 13 -4 16 -10z m550 -30 c19 -36 19 -78 0 -155 -19 -80
-52 -152 -75 -165 -32 -17 -99 -12 -130 10 -40 29 -54 78 -47 174 6 99 9 107
50 132 45 27 64 32 129 33 54 1 58 -1 73 -29z m-587 -37 c55 -38 112 -110 155
-196 33 -66 96 -284 112 -384 6 -39 5 -43 -14 -43 -47 0 -386 92 -511 138
l-55 20 -3 63 c-5 107 55 334 101 377 63 60 148 69 215 25z m1414 -187 c25 -8
49 -12 52 -9 3 4 7 -5 8 -18 5 -87 -24 -172 -68 -200 -17 -10 -47 -42 -65 -69
-40 -59 -70 -65 -119 -24 -40 34 -60 74 -60 121 0 37 27 130 49 172 21 39 120
52 203 27z m1036 -281 c-11 -71 -5 -254 12 -307 24 -81 153 -158 216 -129 15
6 28 10 30 9 2 -2 -2 -23 -8 -46 -12 -50 -57 -92 -97 -92 -50 0 -134 20 -151
35 -9 8 -20 15 -23 15 -11 0 -8 -42 8 -94 8 -27 15 -54 15 -59 0 -15 -148 -1
-249 24 l-88 22 -11 55 c-11 52 -10 56 12 83 14 16 30 45 37 66 6 21 23 46 36
56 23 19 223 311 223 327 0 14 40 103 44 99 2 -2 0 -31 -6 -64z m-537 34 c6
-12 9 -37 6 -55 -6 -35 -54 -124 -67 -124 -17 0 -32 61 -26 101 14 87 60 128
87 78z m-315 -26 c73 -24 149 -107 211 -229 47 -93 142 -349 132 -358 -2 -3
-40 0 -84 5 -200 24 -529 120 -557 163 -15 22 -8 152 12 224 31 110 70 165
140 195 47 20 86 20 146 0z m539 -65 c13 -34 18 -68 16 -125 l-1 -31 -31 29
c-25 23 -40 29 -75 29 -24 0 -44 4 -44 8 0 11 103 122 113 122 4 0 14 -15 22
-32z m-116 -226 c12 -23 -5 -98 -25 -106 -7 -3 -23 3 -36 14 -20 16 -21 21
-10 37 7 10 17 30 23 46 13 31 34 35 48 9z m25 -268 c10 -27 7 -54 -7 -54 -8
0 -18 16 -24 35 -10 31 -9 35 7 35 10 0 21 -7 24 -16z"/>
<path d="M1210 1107 c0 -24 56 -47 114 -47 31 0 56 -4 56 -9 0 -18 107 -53
140 -46 31 7 37 28 9 32 -66 8 -93 17 -119 40 -27 22 -37 25 -76 19 -30 -4
-57 -1 -81 9 -43 18 -43 18 -43 2z"/>
<path d="M2997 1278 c-25 -51 -64 -122 -87 -157 -22 -35 -39 -65 -36 -68 7 -7
70 82 106 149 29 53 73 168 65 168 -1 0 -23 -42 -48 -92z"/>
<path d="M346 893 c-88 -16 -155 -48 -173 -83 -24 -49 24 -84 101 -74 39 6 45
4 51 -15 9 -31 63 -61 106 -61 91 0 129 135 64 228 -18 25 -34 26 -149 5z"/>
</g>
</svg>
